<svg width="62" height="62" viewBox="0 0 62 62" fill="none" xmlns="http://www.w3.org/2000/svg">
<path d="M56.4107 25.7874V15.6882C56.4107 14.349 55.8787 13.0646 54.9317 12.1177C53.9847 11.1707 52.7003 10.6387 51.3611 10.6387H10.9646C9.62537 10.6387 8.341 11.1707 7.39402 12.1177C6.44704 13.0646 5.91504 14.349 5.91504 15.6882V25.7874C7.25427 25.7874 8.53864 26.3194 9.48562 27.2663C10.4326 28.2133 10.9646 29.4977 10.9646 30.8369C10.9646 32.1762 10.4326 33.4605 9.48562 34.4075C8.53864 35.3545 7.25427 35.8865 5.91504 35.8865V45.9856C5.91504 48.7629 8.18734 51.0352 10.9646 51.0352H51.3611C54.1384 51.0352 56.4107 48.7629 56.4107 45.9856V35.8865C53.6334 35.8865 51.3611 33.6142 51.3611 30.8369C51.3611 28.0597 53.6334 25.7874 56.4107 25.7874ZM51.3611 22.1012C48.3566 23.8433 46.3115 27.1255 46.3115 30.8369C46.3115 34.5484 48.3566 37.8306 51.3611 39.5727V45.9856H10.9646V39.5727C13.9691 37.8306 16.0142 34.5484 16.0142 30.8369C16.0142 27.0498 13.9943 23.8433 10.9646 22.1012V15.6882H51.3611V22.1012ZM28.6381 38.4113H33.6876V43.4608H28.6381M28.6381 28.3121H33.6876V33.3617H28.6381M28.6381 18.213H33.6876V23.2626H28.6381V18.213Z" fill="#FFD700"/>
</svg>
