<svg width="22" height="21" viewBox="0 0 22 21" fill="none" xmlns="http://www.w3.org/2000/svg">
<path d="M15.875 4.65015C18.1619 4.65015 18.8179 4.65015 19.6056 5.25459C19.8084 5.4102 19.9899 5.59172 20.1456 5.79452C20.75 6.58224 20.75 7.72571 20.75 10.0126V14.4001C20.75 17.1579 20.75 18.5367 19.8933 19.3934C19.0366 20.2501 17.6577 20.2501 14.9 20.2501H7.1C4.34228 20.2501 2.96343 20.2501 2.10671 19.3934C1.25 18.5367 1.25 17.1579 1.25 14.4001V10.0126C1.25 7.72571 1.25 6.58224 1.85444 5.79452C2.01005 5.59172 2.19158 5.4102 2.39437 5.25459C3.1821 4.65015 3.83806 4.65015 6.125 4.65015" stroke="#FFC000" stroke-width="1.5" stroke-linecap="round"/>
<path d="M15.875 5.625L15.0113 3.46579C14.6387 2.53421 14.3144 1.47745 13.3562 1.00306C12.8451 0.75 12.2301 0.75 11 0.75C9.76994 0.75 9.15491 0.75 8.64377 1.00306C7.68559 1.47745 7.36131 2.53421 6.98868 3.4658L6.125 5.625" stroke="#FFC000" stroke-width="1.5" stroke-linecap="round" stroke-linejoin="round"/>
<path d="M14.4129 12.4499C14.4129 14.3345 12.8851 15.8624 11.0004 15.8624C9.11572 15.8624 7.58789 14.3345 7.58789 12.4499C7.58789 10.5652 9.11572 9.03735 11.0004 9.03735C12.8851 9.03735 14.4129 10.5652 14.4129 12.4499Z" stroke="#FFC000" stroke-width="1.5"/>
<path d="M10.9998 4.65015H11.0086" stroke="#FFC000" stroke-width="2" stroke-linecap="round" stroke-linejoin="round"/>
</svg>
