<svg width="48" height="48" viewBox="0 0 48 48" fill="none" xmlns="http://www.w3.org/2000/svg">
<rect width="48" height="48" rx="24" fill="#FFCC00"/>
<path d="M19 21L23.7707 16.7351C25.0647 15.5784 25.7117 15 26.5 15C27.2883 15 27.9353 15.5784 29.2293 16.7351L34 21" stroke="#322016" stroke-width="1.5" stroke-linecap="round" stroke-linejoin="round"/>
<path d="M20.5 20V32M32.5 32V20" stroke="#322016" stroke-width="1.5" stroke-linecap="round" stroke-linejoin="round"/>
<ellipse cx="15.5" cy="24" rx="1.5" ry="2" stroke="#322016" stroke-width="1.5"/>
<path d="M15.5 26V32" stroke="#322016" stroke-width="1.5" stroke-linecap="round"/>
<path d="M14 32H34" stroke="#322016" stroke-width="1.5" stroke-linecap="round" stroke-linejoin="round"/>
<path d="M24 32V27.9997C24 27.0571 24 26.5858 24.2929 26.2929C24.5858 26 25.0572 26 26 26H27C27.9428 26 28.4142 26 28.7071 26.2929C29 26.5858 29 27.0572 29 28V32" stroke="#322016" stroke-width="1.5" stroke-linecap="round" stroke-linejoin="round"/>
<path d="M25.5 23H27.5M25.5 20H27.5" stroke="#322016" stroke-width="1.5" stroke-linecap="round" stroke-linejoin="round"/>
</svg>
